<?xml version="1.0" encoding="iso-8859-1"?>
<!-- Generator: Adobe Illustrator 19.0.0, SVG Export Plug-In . SVG Version: 6.00 Build 0)  -->
<svg version="1.1" id="Capa_1" xmlns="http://www.w3.org/2000/svg" xmlns:xlink="http://www.w3.org/1999/xlink" x="0px" y="0px"
	 viewBox="0 0 512.003 512.003" style="enable-background:new 0 0 512.003 512.003;" xml:space="preserve">
<path style="fill:#FFB84D;" d="M428.051,159.933c-0.22,6.59-1.72,13-4.45,19.05l-3.99,8.82h-327.2l-3.99-8.82
	c-3.02-6.66-4.53-13.73-4.5-21.02c0.06-13.32,5.23-25.9,14.57-35.4c4.25-4.33,9.15-7.8,14.47-10.33c-0.76-3.27-1.19-6.63-1.3-10.05
	c-0.4-13.51,4.86-26.92,14.43-36.8c9.56-9.88,22.79-15.56,36.29-15.59c2.8-0.01,5.58,0.21,8.29,0.65c0-0.36,0.01-0.72,0.02-1.08
	c0.76-26.25,21.88-47.9,48.09-49.29c14.16-0.74,27.42,4.31,37.22,13.34c9.8-9.04,23.05-14.08,37.22-13.34
	c25.87,1.37,46.99,22.73,48.07,48.63c0.02,0.58,0.04,1.17,0.04,1.75c4.5-0.73,9.13-0.86,13.79-0.36
	c23.82,2.58,42.74,21.78,45.01,45.65c0.53,5.58,0.14,11.14-1.1,16.47c5.62,2.67,10.76,6.4,15.17,11.06
	C423.591,133.222,428.511,146.232,428.051,159.933z"/>
<g>
	<path style="fill:#FF9A00;" d="M428.051,159.933c-0.22,6.59-1.72,13-4.45,19.05l-3.99,8.82h-163.61V13.412
		c9.8-9.04,23.05-14.08,37.22-13.34c25.87,1.37,46.99,22.73,48.07,48.63c0.02,0.58,0.04,1.17,0.04,1.75
		c4.5-0.73,9.13-0.86,13.79-0.36c23.82,2.58,42.74,21.78,45.01,45.65c0.53,5.58,0.14,11.14-1.1,16.47
		c5.62,2.67,10.76,6.4,15.17,11.06C423.591,133.222,428.511,146.232,428.051,159.933z"/>
	<polygon style="fill:#FF9A00;" points="441.721,157.803 385.781,512.003 126.221,512.003 70.281,157.803 	"/>
</g>
<polygon style="fill:#FF4F19;" points="441.721,157.803 385.781,512.003 256.001,512.003 256.001,157.803 "/>
<g>
	<polygon style="fill:#FFFFFF;" points="209.221,512.003 179.091,512.003 177.681,497.003 176.271,482.003 163.671,348.032 
		193.541,345.222 206.401,482.003 	"/>
	<polygon style="fill:#FFFFFF;" points="188.411,290.563 158.541,293.373 148.621,187.803 147.211,172.803 145.801,157.803 
		175.921,157.803 177.331,172.803 178.741,187.803 	"/>
	<rect x="241" y="367.541" style="fill:#FFFFFF;" width="30" height="144.46"/>
	<rect x="241" y="157.801" style="fill:#FFFFFF;" width="30" height="109.06"/>
	<polygon style="fill:#FFFFFF;" points="348.331,348.032 335.731,482.003 334.321,497.003 332.911,512.003 302.781,512.003 
		305.601,482.003 318.461,345.222 	"/>
	<polygon style="fill:#FFFFFF;" points="366.201,157.803 364.791,172.803 363.381,187.803 353.461,293.373 323.591,290.563 
		333.261,187.803 334.671,172.803 336.081,157.803 	"/>
</g>
<path style="fill:#FF5019;" d="M366.381,317.212c0,19.28-12.76,36.63-35.94,48.86c-20.13,10.63-46.57,16.48-74.44,16.48
	s-54.31-5.85-74.44-16.48c-23.18-12.23-35.94-29.58-35.94-48.86s12.76-36.63,35.94-48.87c20.13-10.62,46.57-16.47,74.44-16.47
	s54.31,5.85,74.44,16.47C353.621,280.582,366.381,297.933,366.381,317.212z"/>
<g>
	<rect x="256" y="157.801" style="fill:#C8C6CD;" width="15" height="109.06"/>
	<rect x="256" y="367.541" style="fill:#C8C6CD;" width="15" height="144.46"/>
	<polygon style="fill:#C8C6CD;" points="318.461,345.222 348.331,348.032 335.731,482.003 334.321,497.003 332.911,512.003 
		302.781,512.003 305.601,482.003 	"/>
	<polygon style="fill:#C8C6CD;" points="366.201,157.803 364.791,172.803 363.381,187.803 353.461,293.373 323.591,290.563 
		333.261,187.803 334.671,172.803 336.081,157.803 	"/>
</g>
<path style="fill:#EE2600;" d="M366.381,317.212c0,19.28-12.76,36.63-35.94,48.86c-20.13,10.63-46.57,16.48-74.44,16.48v-130.68
	c27.87,0,54.31,5.85,74.44,16.47C353.621,280.582,366.381,297.933,366.381,317.212z"/>
<g>
</g>
<g>
</g>
<g>
</g>
<g>
</g>
<g>
</g>
<g>
</g>
<g>
</g>
<g>
</g>
<g>
</g>
<g>
</g>
<g>
</g>
<g>
</g>
<g>
</g>
<g>
</g>
<g>
</g>
</svg>
