<?xml version="1.0" encoding="UTF-8" standalone="no"?>
<!-- Generator: Adobe Illustrator 19.0.0, SVG Export Plug-In . SVG Version: 6.00 Build 0)  -->

<svg
   xmlns:dc="http://purl.org/dc/elements/1.1/"
   xmlns:cc="http://creativecommons.org/ns#"
   xmlns:rdf="http://www.w3.org/1999/02/22-rdf-syntax-ns#"
   xmlns:svg="http://www.w3.org/2000/svg"
   xmlns="http://www.w3.org/2000/svg"
   xmlns:xlink="http://www.w3.org/1999/xlink"
   xmlns:sodipodi="http://sodipodi.sourceforge.net/DTD/sodipodi-0.dtd"
   xmlns:inkscape="http://www.inkscape.org/namespaces/inkscape"
   version="1.1"
   id="Capa_1"
   x="0px"
   y="0px"
   viewBox="0 0 512 352"
   xml:space="preserve"
   sodipodi:docname="youtube.svg"
   width="512"
   height="352"
   inkscape:version="0.92.2 5c3e80d, 2017-08-06"><metadata
     id="metadata43"><rdf:RDF><cc:Work
         rdf:about=""><dc:format>image/svg+xml</dc:format><dc:type
           rdf:resource="http://purl.org/dc/dcmitype/StillImage" /><dc:title></dc:title></cc:Work></rdf:RDF></metadata><defs
     id="defs41"><linearGradient
       inkscape:collect="always"
       id="linearGradient889"><stop
         style="stop-color:#d00e20;stop-opacity:1;"
         offset="0"
         id="stop885" /><stop
         style="stop-color:#ea2128;stop-opacity:1"
         offset="1"
         id="stop887" /></linearGradient><linearGradient
       inkscape:collect="always"
       xlink:href="#linearGradient889"
       id="linearGradient893"
       gradientUnits="userSpaceOnUse"
       x1="370.39691"
       y1="478.91422"
       x2="32.122913"
       y2="102.61716" /></defs><sodipodi:namedview
     pagecolor="#ffffff"
     bordercolor="#666666"
     borderopacity="1"
     objecttolerance="10"
     gridtolerance="10"
     guidetolerance="10"
     inkscape:pageopacity="0"
     inkscape:pageshadow="2"
     inkscape:window-width="1920"
     inkscape:window-height="958"
     id="namedview39"
     showgrid="false"
     inkscape:zoom="1.5253906"
     inkscape:cx="256"
     inkscape:cy="177.33163"
     inkscape:window-x="0"
     inkscape:window-y="1"
     inkscape:window-maximized="1"
     inkscape:current-layer="g6" /><g
     id="g6"
     transform="translate(0,-160)"><path
       style="fill:url(#linearGradient893);fill-opacity:1"
       d="M 490.24,193.92 C 476.352,169.216 461.28,164.672 430.592,162.944 399.936,160.864 322.848,160 256.064,160 189.152,160 112.032,160.864 81.408,162.912 50.784,164.672 35.68,169.184 21.664,193.92 7.36,218.592 0,261.088 0,335.904 0,335.968 0,336 0,336 c 0,0.064 0,0.096 0,0.096 v 0.064 c 0,74.496 7.36,117.312 21.664,141.728 14.016,24.704 29.088,29.184 59.712,31.264 30.656,1.792 107.776,2.848 174.688,2.848 66.784,0 143.872,-1.056 174.56,-2.816 30.688,-2.08 45.76,-6.56 59.648,-31.264 C 504.704,453.504 512,410.688 512,336.192 c 0,0 0,-0.096 0,-0.16 0,0 0,-0.064 0,-0.096 0,-74.848 -7.296,-117.344 -21.76,-142.016 z"
       id="path2"
       inkscape:connector-curvature="0" /><polygon
       style="fill:#fafafa"
       points="192,160 352,256 192,352 "
       id="polygon4"
       transform="matrix(0.8524968,0,0,0.8524968,40.120871,117.76082)" /></g><g
     id="g8"
     transform="translate(0,-160)" /><g
     id="g10"
     transform="translate(0,-160)" /><g
     id="g12"
     transform="translate(0,-160)" /><g
     id="g14"
     transform="translate(0,-160)" /><g
     id="g16"
     transform="translate(0,-160)" /><g
     id="g18"
     transform="translate(0,-160)" /><g
     id="g20"
     transform="translate(0,-160)" /><g
     id="g22"
     transform="translate(0,-160)" /><g
     id="g24"
     transform="translate(0,-160)" /><g
     id="g26"
     transform="translate(0,-160)" /><g
     id="g28"
     transform="translate(0,-160)" /><g
     id="g30"
     transform="translate(0,-160)" /><g
     id="g32"
     transform="translate(0,-160)" /><g
     id="g34"
     transform="translate(0,-160)" /><g
     id="g36"
     transform="translate(0,-160)" /></svg>